<svg width="24" height="24" viewBox="0 0 24 24" xmlns="http://www.w3.org/2000/svg">
<path fill-rule="evenodd" clip-rule="evenodd" d="M3 5.5H9C9.27614 5.5 9.5 5.72386 9.5 6V9C9.5 9.27614 9.27614 9.5 9 9.5H3C2.72386 9.5 2.5 9.27614 2.5 9V6C2.5 5.72386 2.72386 5.5 3 5.5ZM1 6C1 4.89543 1.89543 4 3 4H9C10.1046 4 11 4.89543 11 6V9C11 10.1046 10.1046 11 9 11H3C1.89543 11 1 10.1046 1 9V6ZM3 14.5H9C9.27614 14.5 9.5 14.7239 9.5 15V18C9.5 18.2761 9.27614 18.5 9 18.5H3C2.72386 18.5 2.5 18.2761 2.5 18V15C2.5 14.7239 2.72386 14.5 3 14.5ZM1 15C1 13.8954 1.89543 13 3 13H9C10.1046 13 11 13.8954 11 15V18C11 19.1046 10.1046 20 9 20H3C1.89543 20 1 19.1046 1 18V15ZM21 5.5H15C14.7239 5.5 14.5 5.72386 14.5 6V9C14.5 9.27614 14.7239 9.5 15 9.5H21C21.2761 9.5 21.5 9.27614 21.5 9V6C21.5 5.72386 21.2761 5.5 21 5.5ZM15 4C13.8954 4 13 4.89543 13 6V9C13 10.1046 13.8954 11 15 11H21C22.1046 11 23 10.1046 23 9V6C23 4.89543 22.1046 4 21 4H15ZM15 14.5H21C21.2761 14.5 21.5 14.7239 21.5 15V18C21.5 18.2761 21.2761 18.5 21 18.5H15C14.7239 18.5 14.5 18.2761 14.5 18V15C14.5 14.7239 14.7239 14.5 15 14.5ZM13 15C13 13.8954 13.8954 13 15 13H21C22.1046 13 23 13.8954 23 15V18C23 19.1046 22.1046 20 21 20H15C13.8954 20 13 19.1046 13 18V15Z" />
</svg>
