<svg width="24" height="24" viewBox="0 0 24 24" xmlns="http://www.w3.org/2000/svg">
<path fill-rule="evenodd" clip-rule="evenodd" d="M18 20.5H6C5.72386 20.5 5.5 20.2761 5.5 20V4C5.5 3.72386 5.72386 3.5 6 3.5H13.4737C13.6039 3.5 13.7289 3.55076 13.8223 3.6415L18.3485 8.04203C18.4454 8.13617 18.5 8.26548 18.5 8.40053V20C18.5 20.2761 18.2761 20.5 18 20.5ZM4 4C4 2.89543 4.89543 2 6 2H13.4737C13.9944 2 14.4946 2.20306 14.8679 2.56601L19.3942 6.96654C19.7815 7.3431 20 7.86033 20 8.40053V20C20 21.1046 19.1046 22 18 22H6C4.89543 22 4 21.1046 4 20V4ZM11.25 17V13.75H8V12.25H11.25V9H12.75V12.25H16V13.75H12.75V17H11.25Z" />
</svg>
