<svg width="20" height="18" viewBox="0 0 20 18" xmlns="http://www.w3.org/2000/svg">
<path fill-rule="evenodd" clip-rule="evenodd" d="M17.2925 8.94194H15.7925V10.4419V16.0002C15.7925 16.2764 15.5687 16.5002 15.2925 16.5002H13.1205V16.4992V11.0625C13.1205 9.95793 12.225 9.0625 11.1205 9.0625H8.88525C7.78068 9.0625 6.88525 9.95793 6.88525 11.0625V16.4992V16.5002H4.71945C4.44331 16.5002 4.21945 16.2764 4.21945 16.0002V10.4419V8.94194H2.71945H2.26678L10.0018 1.68564L17.7338 8.94194H17.2925ZM19.6815 8.71276L10.6862 0.27082C10.3015 -0.0902213 9.70247 -0.0902805 9.31769 0.270685L0.318812 8.71263C-0.342224 9.33275 0.0966097 10.4419 1.00299 10.4419H1.21945H2.71945V11.9419V16.0002C2.71945 17.1048 3.61488 18.0002 4.71945 18.0002H15.2925C16.3971 18.0002 17.2925 17.1048 17.2925 16.0002V11.9419V10.4419H18.7925H18.9972C19.9035 10.4419 20.3423 9.33295 19.6815 8.71276ZM8.88525 10.5625H11.1205C11.3966 10.5625 11.6205 10.7864 11.6205 11.0625V16.4992H8.38525V11.0625C8.38525 10.7864 8.60911 10.5625 8.88525 10.5625Z"/>
</svg>
