<svg width="24" height="24" viewBox="0 0 24 24" fill="none" xmlns="http://www.w3.org/2000/svg">
<path fill-rule="evenodd" clip-rule="evenodd" d="M4.59289 16.4956C4.56143 16.4525 4.53037 16.409 4.49972 16.3653C4.34304 16.1416 4.19688 15.9101 4.06194 15.6715C3.88729 15.3626 4.14486 15 4.49972 15C4.7803 15 5.05729 14.9846 5.32988 14.9546C5.34546 14.9529 5.36104 14.9511 5.3766 14.9493C5.37666 14.9493 5.37672 14.9493 5.37679 14.9493C9.10566 14.5149 11.9997 11.3454 11.9997 7.5C11.9997 6.17374 11.6555 4.92788 11.0514 3.84691C10.8465 3.48008 11.0634 3 11.4836 3C16.1869 3 19.9997 6.80558 19.9997 11.5C19.9997 16.1944 16.1869 20 11.4836 20C8.65255 20 6.14412 18.6211 4.5957 16.4995C4.59477 16.4982 4.59383 16.4969 4.59289 16.4956ZM6.37975 16.3033C7.65977 17.6569 9.47322 18.5 11.4836 18.5C15.3612 18.5 18.4997 15.3633 18.4997 11.5C18.4997 8.17206 16.1708 5.38334 13.0468 4.67431C13.3407 5.56391 13.4997 6.51426 13.4997 7.5C13.4997 11.8258 10.4478 15.4388 6.37975 16.3033Z" fill="#0B1F33"/>
</svg>
